<?xml version="1.0" encoding="UTF-8" standalone="no"?>
<svg
   xmlns:dc="http://purl.org/dc/elements/1.1/"
   xmlns:cc="http://creativecommons.org/ns#"
   xmlns:rdf="http://www.w3.org/1999/02/22-rdf-syntax-ns#"
   xmlns:svg="http://www.w3.org/2000/svg"
   xmlns="http://www.w3.org/2000/svg"
   viewBox="0 0 666.66669 666.66669"
   height="666.66669"
   width="666.66669"
   xml:space="preserve"
   id="svg2"
   version="1.1"><metadata
     id="metadata8"><rdf:RDF><cc:Work
         rdf:about=""><dc:format>image/svg+xml</dc:format><dc:type
           rdf:resource="http://purl.org/dc/dcmitype/StillImage" /></cc:Work></rdf:RDF></metadata><defs
     id="defs6"><clipPath
       id="clipPath18"
       clipPathUnits="userSpaceOnUse"><path
         id="path16"
         d="M 0,500 H 500 V 0 H 0 Z" /></clipPath></defs><g
     transform="matrix(1.3333333,0,0,-1.3333333,0,666.66667)"
     id="g10"><g
       id="g12"><g
         clip-path="url(#clipPath18)"
         id="g14"><g
           transform="translate(99.3931,326.6523)"
           id="g20"><path
             id="path22"
             style="fill:#f6f6f6;fill-opacity:1;fill-rule:nonzero;stroke:none"
             d="m 0,0 c -36.514,0 -70.581,-10.454 -99.393,-28.516 v -298.136 h 224.801 c 38.061,34.3 61.995,83.977 61.995,139.249 C 187.403,-83.903 103.5,0 0,0" /></g><g
           transform="translate(99.3931,326.6523)"
           id="g24"><path
             id="path26"
             style="fill:none;stroke:#ffffff;stroke-width:1;stroke-linecap:butt;stroke-linejoin:miter;stroke-miterlimit:10;stroke-dasharray:none;stroke-opacity:1"
             d="m 0,0 c -36.514,0 -70.581,-10.454 -99.393,-28.516 v -298.136 h 224.801 c 38.061,34.3 61.995,83.977 61.995,139.249 C 187.403,-83.903 103.5,0 0,0 Z" /></g><g
           transform="translate(147.707,278.2207)"
           id="g28"><path
             id="path30"
             style="fill:#f6f6f6;fill-opacity:1;fill-rule:nonzero;stroke:none"
             d="m 0,0 c -22.243,10.239 -67.68,13.597 -67.68,13.597 -33.509,0.953 -59.218,-4.598 -80.027,-13.913 v -43.016 c 55.341,19.771 98.424,6.083 98.424,6.083 -10.454,-23.33 -31.942,-48.447 -31.942,-48.447 -24.627,0.913 -46.705,-1.074 -66.482,-5.158 v -46.494 c 47.633,2.791 82.913,-10.457 82.913,-10.457 C 11.229,-74.793 0,0 0,0" /></g><g
           transform="translate(147.707,278.2207)"
           id="g32"><path
             id="path34"
             style="fill:none;stroke:#ffffff;stroke-width:1;stroke-linecap:butt;stroke-linejoin:miter;stroke-miterlimit:10;stroke-dasharray:none;stroke-opacity:1"
             d="m 0,0 c -22.243,10.239 -67.68,13.597 -67.68,13.597 -33.509,0.953 -59.218,-4.598 -80.027,-13.913 v -43.016 c 55.341,19.771 98.424,6.083 98.424,6.083 -10.454,-23.33 -31.942,-48.447 -31.942,-48.447 -24.627,0.913 -46.705,-1.074 -66.482,-5.158 v -46.494 c 47.633,2.791 82.913,-10.457 82.913,-10.457 C 11.229,-74.793 0,0 0,0 Z" /></g><g
           transform="translate(117.9238,325.7476)"
           id="g36"><path
             id="path38"
             style="fill:#f6f6f6;fill-opacity:1;fill-rule:nonzero;stroke:none"
             d="m 0,0 c 0,0 -35.972,4.799 -75.851,-8.024 -13.819,-4.444 -28.145,-10.878 -42.073,-19.575 v -25.009 c 30.265,14.186 69.723,23.102 117.445,13.708 0,0 2.825,7.058 2.825,19.688 C 2.346,-6.583 0,0 0,0" /></g><g
           transform="translate(117.9238,325.7476)"
           id="g40"><path
             id="path42"
             style="fill:none;stroke:#ffffff;stroke-width:1;stroke-linecap:butt;stroke-linejoin:miter;stroke-miterlimit:10;stroke-dasharray:none;stroke-opacity:1"
             d="m 0,0 c 0,0 -35.972,4.799 -75.851,-8.024 -13.819,-4.444 -28.145,-10.878 -42.073,-19.575 v -25.009 c 30.265,14.186 69.723,23.102 117.445,13.708 0,0 2.825,7.058 2.825,19.688 C 2.346,-6.583 0,0 0,0 Z" /></g><g
           transform="translate(171.2046,43.9639)"
           id="g44"><path
             id="path46"
             style="fill:#f6f6f6;fill-opacity:1;fill-rule:nonzero;stroke:none"
             d="m 0,0 c 0,0 -55.857,43.291 -61.784,65.005 0,0 101.59,78.199 76.371,196.622 0,0 -17.081,10.01 -44.943,16.46 0,0 35.606,-91.557 -54.895,-187.23 0,0 -0.56,-4.439 -13.679,-0.666 -7.702,2.215 -35.551,9.148 -72.275,6.94 v -34.88 c 21.952,1.309 47.685,-0.991 75.793,-10.677 0,0 28.926,-62.795 98.162,-95.538 h 126.18 c 7.791,5.468 15.419,12.552 22.214,21.741 0,0 -64.676,-31.481 -151.144,22.223" /></g><g
           transform="translate(171.2046,43.9639)"
           id="g48"><path
             id="path50"
             style="fill:none;stroke:#ffffff;stroke-width:1;stroke-linecap:butt;stroke-linejoin:miter;stroke-miterlimit:10;stroke-dasharray:none;stroke-opacity:1"
             d="m 0,0 c 0,0 -55.857,43.291 -61.784,65.005 0,0 101.59,78.199 76.371,196.622 0,0 -17.081,10.01 -44.943,16.46 0,0 35.606,-91.557 -54.895,-187.23 0,0 -0.56,-4.439 -13.679,-0.666 -7.702,2.215 -35.551,9.148 -72.275,6.94 v -34.88 c 21.952,1.309 47.685,-0.991 75.793,-10.677 0,0 28.926,-62.795 98.162,-95.538 h 126.18 c 7.791,5.468 15.419,12.552 22.214,21.741 0,0 -64.676,-31.481 -151.144,22.223 z" /></g><g
           transform="translate(174.5015,101.2324)"
           id="g52"><path
             id="path54"
             style="fill:#f6f6f6;fill-opacity:1;fill-rule:nonzero;stroke:none"
             d="m 0,0 c 0.361,-0.31 13.643,20.755 14.382,21.926 42.639,67.545 15.951,171.17 9.427,175.33 0,0 16.894,-10.812 22.463,-16.453 3.772,-3.822 6.108,-10.159 8.438,-14.873 5.162,-10.443 9.696,-21.222 13.557,-32.212 C 78.621,104.245 80.853,75.136 72.552,44.901 65.081,17.685 50.478,-6.3 32.197,-27.603 32.197,-27.603 0.006,-0.004 0,0" /></g><g
           transform="translate(174.5015,101.2324)"
           id="g56"><path
             id="path58"
             style="fill:none;stroke:#ffffff;stroke-width:1;stroke-linecap:butt;stroke-linejoin:miter;stroke-miterlimit:10;stroke-dasharray:none;stroke-opacity:1"
             d="m 0,0 c 0.361,-0.31 13.643,20.755 14.382,21.926 42.639,67.545 15.951,171.17 9.427,175.33 0,0 16.894,-10.812 22.463,-16.453 3.772,-3.822 6.108,-10.159 8.438,-14.873 5.162,-10.443 9.696,-21.222 13.557,-32.212 C 78.621,104.245 80.853,75.136 72.552,44.901 65.081,17.685 50.478,-6.3 32.197,-27.603 32.197,-27.603 0.006,-0.004 0,0 Z" /></g><g
           transform="translate(250.1411,45.5029)"
           id="g60"><path
             id="path62"
             style="fill:#f6f6f6;fill-opacity:1;fill-rule:nonzero;stroke:none"
             d="m 0,0 c 0.597,-0.224 5.638,8.6 6.001,9.196 4.775,7.84 9.071,16.012 12.831,24.443 4.904,10.998 8.914,22.492 11.449,34.358 2.954,13.825 2.232,27.466 1.658,41.597 -1.295,31.853 -13.986,65.941 -14.271,66.442 C 23.854,165.135 45.405,115.689 33.126,56.948 28.653,35.547 21.615,16.341 9.448,-3.554 8.94,-4.089 1.22,-0.457 0,0" /></g><g
           transform="translate(250.1411,45.5029)"
           id="g64"><path
             id="path66"
             style="fill:none;stroke:#ffffff;stroke-width:1;stroke-linecap:butt;stroke-linejoin:miter;stroke-miterlimit:10;stroke-dasharray:none;stroke-opacity:1"
             d="m 0,0 c 0.597,-0.224 5.638,8.6 6.001,9.196 4.775,7.84 9.071,16.012 12.831,24.443 4.904,10.998 8.914,22.492 11.449,34.358 2.954,13.825 2.232,27.466 1.658,41.597 -1.295,31.853 -13.986,65.941 -14.271,66.442 C 23.854,165.135 45.405,115.689 33.126,56.948 28.653,35.547 21.615,16.341 9.448,-3.554 8.94,-4.089 1.22,-0.457 0,0 Z" /></g><path
           id="path68"
           style="fill:#f6f6f6;fill-opacity:1;fill-rule:nonzero;stroke:none"
           d="M 0,0 H 88.015 C 72.079,10.188 57.12,22.837 46.764,38.223 c 0,0 -8.347,12.477 -12.516,13.451 C 31.625,52.287 19.424,55.68 0,56.803 Z" /><path
           id="path70"
           style="fill:none;stroke:#ffffff;stroke-width:1;stroke-linecap:butt;stroke-linejoin:miter;stroke-miterlimit:10;stroke-dasharray:none;stroke-opacity:1"
           d="M 0,0 H 88.015 C 72.079,10.188 57.12,22.837 46.764,38.223 c 0,0 -8.347,12.477 -12.516,13.451 C 31.625,52.287 19.424,55.68 0,56.803 Z" /><g
           transform="translate(169.3203,228.0342)"
           id="g72"><path
             id="path74"
             style="fill:#e7e7e9;fill-opacity:1;fill-rule:nonzero;stroke:none"
             d="M 0,0 C 2.351,0.286 4.604,0.591 6.735,0.914 L 2.219,9.046 c 0,0 -4.231,-0.786 -10.959,-1.979 -9.407,7.532 -17.995,14.183 -22.808,17.88 8.29,2.173 17.542,4.828 26.441,7.64 l -0.726,15.394 c 0,0 -65.213,-26.345 -155.754,-37.057 0,0 47.55,-6.448 123.22,12.288 L -27.77,15.02 c 4.036,-2.885 8.047,-5.975 11.988,-9.187 -23.147,-4.015 -62.181,-10.356 -77.471,-10.303 0,0 49.854,0.13 85.394,3.614 27.698,-24.185 50.127,-51.867 50.127,-51.867 0,0 -2.993,10.171 -8.783,21.464 C 30.777,-25.978 15.5,-12.671 0,0" /></g><g
           transform="translate(54.498,256.23)"
           id="g76"><path
             id="path78"
             style="fill:#e7e7e9;fill-opacity:1;fill-rule:nonzero;stroke:none"
             d="M 0,0 C 0,0 -26.081,-6.739 0.398,0.043 0.135,0.014 0,0 0,0" /></g><g
           transform="translate(150.4834,288.1235)"
           id="g80"><path
             id="path82"
             style="fill:#e7e7e9;fill-opacity:1;fill-rule:nonzero;stroke:none"
             d="m 0,0 c 0,0 -62.172,-23.287 -92.949,-31.174 -0.933,-0.239 -1.81,-0.464 -2.638,-0.676 8.36,0.947 148.175,18.406 331.084,145.601 C 235.497,113.751 120.986,43.115 0,0" /></g><g
           transform="translate(325.79,265.0391)"
           id="g84"><path
             id="path86"
             style="fill:#e7e7e9;fill-opacity:1;fill-rule:nonzero;stroke:none"
             d="m 0,0 c 21.924,4.044 46.887,12.485 68.577,21.41 7.797,-10.742 15.038,-22.865 21.051,-36.438 0,0 -2.087,17.898 -14.117,39.348 40.75,17.417 73.338,36.946 73.338,36.946 C 120.468,48.225 94.26,37.958 72.072,30.095 62.095,45.913 46.591,62.907 22.63,75.739 c 17.949,7.38 33.348,13.416 25.043,10.936 -0.33,-0.099 -0.676,-0.204 -1.038,-0.318 -5.867,-1.829 -15.86,-5.505 -26.215,-9.45 -8.8,4.519 -18.701,8.48 -29.848,11.63 0,0 9.689,-4.513 23.455,-14.079 C -2.057,68.259 -18.354,61.839 -18.354,61.839 l 2.674,-3.281 c 5.588,3.338 19.056,9.183 31.746,14.466 C 30.153,63.01 48.009,47.957 64.121,27.32 26.149,14.266 0.401,8.375 0.401,8.375 0.409,5.976 0,0 0,0" /></g><g
           transform="translate(355.5498,229.0928)"
           id="g88"><path
             id="path90"
             style="fill:#e7e7e9;fill-opacity:1;fill-rule:nonzero;stroke:none"
             d="m 0,0 c 0,0 -3.98,-3.724 -12.746,-7.159 0,0 81.39,8.52 149.463,40.943 C 136.717,33.784 64.739,9.395 0,0" /></g><g
           transform="translate(327.2285,273.4141)"
           id="g92"><path
             id="path94"
             style="fill:#ffffff;fill-opacity:1;fill-rule:nonzero;stroke:none"
             d="m 0,0 c 0,-45.343 -36.759,-82.101 -82.102,-82.101 -45.342,0 -82.1,36.758 -82.1,82.101 0,45.343 36.758,82.101 82.1,82.101 C -36.759,82.101 0,45.343 0,0" /></g><g
           transform="translate(244.7026,317.9785)"
           id="g96"><path
             id="path98"
             style="fill:#56c5d0;fill-opacity:1;fill-rule:nonzero;stroke:none"
             d="m 0,0 c 0,0 -52.248,16.602 -94.547,-45.331 0,0 11.824,26.123 23.184,38.957 13.206,14.92 28.846,29.629 63.303,28.649 0,0 19.906,-1.471 29.651,-5.956 0,0 4.919,-32.767 -28.386,-64.753 0,0 -61.565,23.121 -104.848,-32.646 0,0 19.998,62.735 97.649,59.855 0,0 9.414,11.004 13.994,21.225" /></g><g
           transform="translate(253.2451,355.1187)"
           id="g100"><path
             id="path102"
             style="fill:#48a4ac;fill-opacity:1;fill-rule:nonzero;stroke:none"
             d="m 0,0 c 0,0 -15.759,2.103 -33.229,-3.515 -18.022,-5.796 -38.018,-19.272 -49.489,-43.846 0,0 29.735,40.708 82.508,30.319 0,0 1.238,3.092 1.238,8.625 C 1.028,-2.884 0,0 0,0" /></g><g
           transform="translate(263.2891,353.4995)"
           id="g104"><path
             id="path106"
             style="fill:#48a4ac;fill-opacity:1;fill-rule:nonzero;stroke:none"
             d="m 0,0 c 0,0 15.599,-40.111 -24.05,-82.025 0,0 -0.245,-1.945 -5.992,-0.292 -5.749,1.653 -37.103,9.31 -69.673,-7.063 0,0 2.483,-39.107 38.026,-60.33 0,0 -26.345,19.534 -32.913,45.88 0,0 28.108,17.686 66.101,4.595 0,0 20.629,-44.797 72.261,-49.871 0,0 21.851,-1.261 35.755,17.54 0,0 -28.334,-13.792 -66.216,9.736 0,0 -24.471,18.966 -27.068,28.478 0,0 44.506,34.26 33.458,86.141 0,0 -7.483,4.385 -19.689,7.211" /></g><g
           transform="translate(278.0322,256.7593)"
           id="g108"><path
             id="path110"
             style="fill:#56c5d0;fill-opacity:1;fill-rule:nonzero;stroke:none"
             d="m 0,0 c 0.158,-0.136 5.977,9.092 6.301,9.605 18.679,29.592 6.988,74.99 4.13,76.812 0,0 7.401,-4.736 9.84,-7.208 1.653,-1.674 2.676,-4.451 3.697,-6.515 2.261,-4.576 4.248,-9.298 5.939,-14.113 4.536,-12.912 5.514,-25.664 1.878,-38.91 C 28.512,7.748 22.114,-2.76 14.105,-12.092 14.105,-12.092 0.002,-0.002 0,0" /></g><g
           transform="translate(311.1699,232.3437)"
           id="g112"><path
             id="path114"
             style="fill:#56c5d0;fill-opacity:1;fill-rule:nonzero;stroke:none"
             d="m 0,0 c 0.261,-0.098 2.47,3.768 2.629,4.029 2.092,3.435 3.974,7.015 5.621,10.708 2.148,4.819 3.905,9.854 5.016,15.053 1.295,6.057 0.978,12.032 0.726,18.223 C 13.425,61.968 7.865,76.902 7.74,77.122 10.45,72.346 19.892,50.684 14.512,24.949 12.553,15.573 9.47,7.159 4.139,-1.557 3.916,-1.791 0.534,-0.2 0,0" /></g><g
           transform="translate(275.8584,197.2588)"
           id="g116"><path
             id="path118"
             style="fill:#56c5d0;fill-opacity:1;fill-rule:nonzero;stroke:none"
             d="m 0,0 c 0,0 -38.437,9.089 -53.788,31.896 0,0 -3.657,5.466 -5.483,5.893 -1.826,0.426 -14.235,3.93 -33.116,1.629 0,0 10.374,-28.966 39.86,-39.564 26.156,-9.4 45.55,-2.413 51.01,-0.426 C -0.554,-0.222 0,0 0,0" /></g><g
           transform="translate(275.8584,197.2588)"
           id="g120"><path
             id="path122"
             style="fill:#48a4ac;fill-opacity:1;fill-rule:nonzero;stroke:none"
             d="m 0,0 c 0,0 -6.742,1.784 -10.005,3.018 0,0 -15.79,-9.919 -39.515,-4.187 0,0 27.233,-8.822 49.52,1.169" /></g><g
           transform="translate(140.0483,162.209)"
           id="g124"><path
             id="path126"
             style="fill:#48a4ac;fill-opacity:1;fill-rule:nonzero;stroke:none"
             d="M 0,0 C -0.155,-0.057 -0.635,-0.903 -1.469,-2.557 -1.963,-3.771 -2.217,-4.83 -2.246,-5.72 l -0.099,-3.235 c -0.014,-1.369 -0.367,-2.556 -1.045,-3.587 -2.161,-3.334 -5.099,-5 -8.813,-5 -3.56,0.042 -5.297,1.61 -5.184,4.718 0.042,1.397 0.89,3.799 2.556,7.203 0.113,0.184 0.198,0.424 0.241,0.72 0.056,0.283 0.014,0.452 -0.128,0.495 -0.141,0.042 -0.353,-0.198 -0.649,-0.706 -2.543,-4.351 -3.814,-7.995 -3.814,-10.919 0,-2.175 0.551,-3.757 1.639,-4.717 1.087,-0.975 2.429,-1.483 4.025,-1.512 1.61,-0.028 3.15,0.311 4.647,1.045 3.376,1.851 5.791,5 7.274,9.436 0.17,0.536 0.409,1.567 0.749,3.092 0.325,1.526 0.522,3.009 0.593,4.436 0.085,1.299 0.226,2.57 0.452,3.814 C 0.212,-0.099 0.156,0.043 0,0" /></g><g
           transform="translate(129.5542,152.1953)"
           id="g128"><path
             id="path130"
             style="fill:#48a4ac;fill-opacity:1;fill-rule:nonzero;stroke:none"
             d="m 0,0 c 0.635,-0.467 1.116,-0.848 1.426,-1.116 0.481,0 0.975,0.537 1.512,1.596 C 3.39,1.355 3.559,2.048 3.446,2.57 3.39,2.952 3.192,3.319 2.867,3.687 2.557,4.039 2.005,4.52 1.243,5.099 0.861,4.562 0.396,3.771 -0.127,2.74 -0.65,1.709 -0.918,1.115 -0.933,0.988 -0.933,0.805 -0.622,0.466 0,0" /></g><g
           transform="translate(135.0049,147.5498)"
           id="g132"><path
             id="path134"
             style="fill:#48a4ac;fill-opacity:1;fill-rule:nonzero;stroke:none"
             d="M 0,0 C -0.113,-0.085 -0.41,-0.819 -0.875,-2.203 -1.342,-3.588 -1.709,-4.76 -1.963,-5.721 l -0.028,-2.825 c -0.029,-2.061 -0.382,-4.717 -1.088,-7.937 -0.028,-0.169 0.028,-0.283 0.155,-0.326 0.41,0.029 1.116,1.47 2.147,4.323 0.41,1.116 0.636,2.486 0.707,4.138 l 0.155,4.026 c 0.028,1.582 0.07,2.937 0.127,4.067 C 0.198,0 0.127,0.085 0,0" /></g><g
           transform="translate(142.6108,127.1885)"
           id="g136"><path
             id="path138"
             style="fill:#48a4ac;fill-opacity:1;fill-rule:nonzero;stroke:none"
             d="m 0,0 c -0.311,-0.396 -0.649,-1.018 -1.06,-1.836 -0.268,-0.538 -0.443,-0.914 -0.546,-1.155 0.012,0.137 0.044,0.291 0.024,0.406 -0.028,0.311 -0.184,0.621 -0.438,0.904 -0.254,0.296 -0.692,0.663 -1.313,1.116 -0.297,-0.438 -0.664,-1.059 -1.074,-1.878 -0.424,-0.82 -0.635,-1.286 -0.664,-1.399 0,-0.141 0.255,-0.41 0.763,-0.777 0.495,-0.381 0.876,-0.664 1.13,-0.89 0.367,0 0.777,0.424 1.215,1.257 0.148,0.322 0.243,0.603 0.309,0.861 0.098,-0.141 0.333,-0.35 0.708,-0.621 0.494,-0.381 0.861,-0.663 1.101,-0.875 0.367,0 0.763,0.409 1.215,1.242 0.339,0.707 0.48,1.258 0.424,1.667 C 1.723,-1.681 1.568,-1.385 1.313,-1.102 1.045,-0.806 0.607,-0.437 0,0" /></g><g
           transform="translate(145.2056,138.4961)"
           id="g140"><path
             id="path142"
             style="fill:#48a4ac;fill-opacity:1;fill-rule:nonzero;stroke:none"
             d="M 0,0 C 0.932,0.494 1.751,2.02 2.458,4.576 2.613,5.085 2.584,5.353 2.401,5.381 2.373,5.381 2.104,5.042 1.582,4.364 1.059,3.7 0.649,3.263 0.353,3.051 0.042,2.853 -0.48,2.57 -1.243,2.203 -1.992,1.851 -2.656,1.285 -3.207,0.508 -3.404,0.169 -3.715,-0.551 -4.167,-1.639 -4.619,-2.727 -4.986,-3.461 -5.269,-3.842 -5.565,-4.224 -5.989,-4.647 -6.554,-5.113 -7.119,-5.565 -7.726,-6.018 -8.39,-6.44 c -0.664,-0.424 -1.342,-0.863 -2.02,-1.315 -0.678,-0.437 -1.017,-0.776 -0.988,-0.988 0.014,-0.325 0.607,-0.367 1.751,-0.155 1.285,0.14 2.288,0.423 3.008,0.833 0.735,0.395 1.314,1.044 1.738,1.935 0.423,0.875 0.833,1.864 1.214,2.966 C -3.305,-1.936 -2.077,-0.876 0,0" /></g><g
           transform="translate(151.2266,153.4756)"
           id="g144"><path
             id="path146"
             style="fill:#48a4ac;fill-opacity:1;fill-rule:nonzero;stroke:none"
             d="M 0,0 C -0.113,-0.085 -0.41,-0.819 -0.875,-2.203 -1.342,-3.587 -1.709,-4.76 -1.963,-5.72 l -0.028,-2.825 c -0.029,-2.062 -0.382,-4.718 -1.088,-7.938 -0.028,-0.169 0.028,-0.283 0.156,-0.325 0.409,0.029 1.115,1.469 2.146,4.323 0.41,1.115 0.636,2.485 0.707,4.137 l 0.155,4.026 C 0.113,-2.74 0.156,-1.384 0.212,-0.254 0.198,0 0.127,0.085 0,0" /></g><g
           transform="translate(164.7144,147.96)"
           id="g148"><path
             id="path150"
             style="fill:#48a4ac;fill-opacity:1;fill-rule:nonzero;stroke:none"
             d="m 0,0 c -0.282,0.057 -0.622,-0.254 -1.017,-0.946 -0.409,-0.693 -0.89,-1.681 -1.441,-2.966 -0.07,-0.17 0.029,-0.354 0.283,-0.551 0.254,-0.212 0.395,-0.325 0.409,-0.367 0,-0.184 -0.48,-0.679 -1.454,-1.512 -0.961,-0.833 -1.808,-1.836 -2.514,-3.009 -0.933,-1.468 -1.399,-2.768 -1.399,-3.898 0,-1.115 0.438,-1.893 1.3,-2.316 1.328,-0.635 1.991,-1.102 1.991,-1.413 0,-0.748 -0.353,-1.553 -1.045,-2.415 -0.692,-0.861 -1.596,-1.61 -2.697,-2.231 -1.117,-0.636 -2.473,-0.946 -4.083,-0.946 -1.61,0 -2.796,0.466 -3.559,1.398 -0.749,0.946 -1.144,1.948 -1.172,3.036 -0.015,1.074 0.127,2.119 0.438,3.121 0.31,1.003 0.762,2.204 1.356,3.617 0.607,1.412 1.002,2.401 1.2,2.994 0.212,0.579 0.226,1.031 0.056,1.328 -0.748,-1.37 -1.694,-3.39 -2.853,-6.06 -1.158,-2.669 -1.723,-5.028 -1.723,-7.076 0,-1.892 0.367,-3.517 1.13,-4.858 0.763,-1.342 2.063,-2.091 3.927,-2.246 3.065,0 5.65,1.468 7.712,4.392 0.819,1.173 1.525,2.613 2.133,4.322 0.607,1.709 0.918,3.178 0.932,4.421 0,1.229 -0.297,2.035 -0.918,2.402 -1.427,0.748 -2.133,1.257 -2.119,1.539 0.028,0.594 0.763,1.412 2.231,2.471 1.456,1.06 2.571,1.794 3.334,2.19 0.749,0.409 1.413,0.961 1.963,1.667 0.551,0.706 0.777,1.44 0.678,2.175 C 2.966,-0.988 1.949,-0.409 0,0" /></g><g
           transform="translate(222.147,155.7637)"
           id="g152"><path
             id="path154"
             style="fill:#48a4ac;fill-opacity:1;fill-rule:nonzero;stroke:none"
             d="m 0,0 c -1.088,-0.07 -3.884,-1.327 -8.376,-3.771 -4.492,-2.444 -8.249,-4.096 -11.257,-4.986 -3.009,-0.889 -5.904,-1.497 -8.7,-1.85 -2.797,-0.339 -5.241,-0.508 -7.331,-0.508 -2.078,0 -3.989,0.291 -5.763,0.883 v 0.006 c -2.698,0.96 -4.039,2.698 -4.039,5.226 0,1.597 0.268,3.898 0.804,6.879 0.057,0.367 0.085,0.621 0.071,0.776 0,0.142 -0.085,0.17 -0.24,0.057 -0.876,-1.539 -1.44,-2.641 -1.723,-3.333 -0.706,-1.851 -1.059,-4.351 -1.059,-7.486 0,-0.41 0.014,-1.342 0.028,-2.825 0.028,-1.469 -0.071,-2.599 -0.283,-3.39 -0.212,-0.791 -0.692,-1.554 -1.441,-2.288 -0.748,-0.735 -1.468,-1.116 -2.174,-1.116 -0.707,-0.014 -1.074,0.014 -1.117,0.071 1.229,1.822 1.935,4.464 2.105,7.952 l 0.325,5.692 c 0.057,1.073 0.099,1.921 0.127,2.557 0.014,0.649 -0.084,0.833 -0.325,0.579 -0.339,-0.721 -0.777,-2.091 -1.299,-4.097 -0.523,-2.006 -0.763,-3.643 -0.721,-4.929 0.043,-1.286 0.071,-2.203 0.071,-2.783 0,-2.203 -0.325,-3.743 -0.989,-4.618 -0.452,-0.594 -0.677,-0.989 -0.677,-1.186 0,-0.184 0.296,-0.551 0.903,-1.088 0.594,-0.537 1.201,-0.791 1.822,-0.791 1.794,0 3.235,1.44 4.322,4.322 0.424,1.257 0.707,2.246 0.834,2.981 0.573,-1.05 2.106,-1.821 4.604,-2.357 v -0.045 c 1.667,-0.255 3.771,-0.382 6.314,-0.382 2.542,0 5.748,0.481 9.633,1.455 3.884,0.975 7.471,2.345 10.777,4.139 3.291,1.794 5.551,3.108 6.765,3.941 1.215,0.833 2.246,1.483 3.093,1.935 0.848,0.466 1.682,0.791 2.515,0.988 0.409,0.085 1.299,1.017 2.683,2.811 C 0.508,-0.324 0.41,-0.127 0,0" /></g><g
           transform="translate(208.6089,148.3965)"
           id="g156"><path
             id="path158"
             style="fill:#48a4ac;fill-opacity:1;fill-rule:nonzero;stroke:none"
             d="M 0,0 C -0.113,-0.085 -0.409,-0.819 -0.875,-2.204 -1.342,-3.588 -1.709,-4.76 -1.963,-5.721 l -0.028,-2.825 c -0.029,-2.061 -0.382,-4.717 -1.088,-7.937 -0.028,-0.17 0.028,-0.283 0.156,-0.326 0.409,0.029 1.115,1.469 2.147,4.323 0.409,1.116 0.635,2.486 0.706,4.138 l 0.155,4.026 C 0.113,-2.74 0.156,-1.385 0.212,-0.255 0.198,0 0.127,0.084 0,0" /></g><g
           transform="translate(229.3667,143.6172)"
           id="g160"><path
             id="path162"
             style="fill:#48a4ac;fill-opacity:1;fill-rule:nonzero;stroke:none"
             d="m 0,0 c -1.201,-0.269 -2.472,-1.003 -3.828,-2.176 -1.356,-1.172 -2.726,-2.712 -4.096,-4.59 -1.384,-1.893 -2.118,-3.87 -2.232,-5.947 0,-1.214 0.678,-2.005 2.02,-2.372 1.059,-0.269 1.582,-0.565 1.54,-0.891 -0.269,-1.2 -1.046,-2.428 -2.345,-3.7 -1.299,-1.271 -2.81,-1.977 -4.548,-2.104 -1.723,-0.142 -3.15,0.141 -4.265,0.847 -1.13,0.693 -1.597,1.95 -1.427,3.744 0.169,1.793 1.37,5.112 3.616,9.957 0.211,0.579 0.141,0.876 -0.226,0.889 -0.297,-0.055 -1.229,-1.836 -2.797,-5.324 -1.568,-3.489 -2.359,-6.483 -2.359,-8.983 0,-1.963 0.467,-3.433 1.413,-4.421 0.932,-0.975 2.26,-1.469 3.969,-1.469 3.121,0 5.664,1.525 7.655,4.576 0.89,1.54 1.582,3.079 2.062,4.647 0.481,1.553 0.721,3.023 0.721,4.393 0,1.384 -0.58,2.232 -1.738,2.556 -0.904,0.353 -1.299,0.805 -1.158,1.328 0.141,0.522 0.834,1.398 2.09,2.642 1.258,1.228 2.43,1.934 3.489,2.076 0.255,0 0.523,-0.114 0.777,-0.354 0.212,-0.085 0.537,0.354 0.975,1.3 0.438,0.946 0.762,1.751 0.974,2.387 C 0.494,-0.354 0.396,-0.015 0,0" /></g><g
           transform="translate(233.1719,134.3936)"
           id="g164"><path
             id="path166"
             style="fill:#48a4ac;fill-opacity:1;fill-rule:nonzero;stroke:none"
             d="m 0,0 c -0.169,0.028 -0.396,-0.424 -0.678,-1.342 -0.791,-2.598 -1.356,-4.209 -1.723,-4.803 -0.748,-1.454 -1.907,-2.753 -3.474,-3.925 -1.568,-1.159 -2.388,-1.866 -2.43,-2.105 -0.056,-0.255 0.029,-0.368 0.268,-0.34 0.763,0 2.006,0.368 3.715,1.117 0.89,0.367 1.568,0.904 2.034,1.624 0.452,0.707 0.89,1.78 1.3,3.178 0.833,3.135 1.228,5.198 1.214,6.186 C 0.24,-0.155 0.17,-0.014 0,0" /></g><g
           transform="translate(255.4814,123.8838)"
           id="g168"><path
             id="path170"
             style="fill:#48a4ac;fill-opacity:1;fill-rule:nonzero;stroke:none"
             d="m 0,0 c -0.297,-0.409 -0.649,-1.031 -1.073,-1.851 -0.41,-0.819 -0.636,-1.298 -0.651,-1.425 0,-0.128 0.255,-0.369 0.749,-0.749 0.509,-0.368 0.89,-0.664 1.145,-0.876 0.352,0 0.748,0.41 1.172,1.243 0.353,0.706 0.494,1.257 0.424,1.667 C 1.695,-1.695 1.54,-1.398 1.285,-1.116 1.031,-0.819 0.607,-0.452 0,0" /></g><g
           transform="translate(256.4326,136.3828)"
           id="g172"><path
             id="path174"
             style="fill:#48a4ac;fill-opacity:1;fill-rule:nonzero;stroke:none"
             d="m 0,0 c 0,-0.522 -0.806,-1.144 -2.401,-1.893 -0.537,-0.239 -1.484,-0.649 -2.854,-1.242 1.003,1.356 1.597,2.203 1.766,2.529 0.664,0.748 1.413,1.129 2.246,1.158 C -0.41,0.594 0,0.396 0,0 M 10.031,13.59 C 9.649,13.773 8.985,13.957 8.011,14.155 7.036,14.339 6.118,14.438 5.257,14.451 4.396,14.466 3.773,14.311 3.393,13.971 2.997,13.646 2.602,13.181 2.163,12.602 1.739,12.008 1.527,11.641 1.527,11.471 c 0,-0.156 0.043,-0.24 0.142,-0.24 0.099,0 0.227,0.084 0.367,0.226 0.622,0.734 1.399,1.088 2.317,1.073 C 5.271,12.517 6.302,12.318 7.446,11.909 5.482,11.118 4.112,10.426 3.336,9.833 2.61,9.266 1.898,8.288 1.198,6.911 1.147,6.859 1.088,6.809 1.048,6.754 L 0.921,6.443 C 0.723,6.033 0.482,5.736 0.2,5.567 -0.097,5.397 -0.478,5.186 -0.973,4.932 -2.06,4.311 -2.949,3.604 -3.642,2.813 -4.229,2.142 -4.836,1.308 -5.447,0.314 c -0.036,0.038 -0.062,0.054 -0.101,0.098 -0.283,0.536 -0.806,0.805 -1.568,0.805 -0.989,0 -1.992,-0.862 -3.037,-2.599 l -1.992,-3.263 c -0.07,-0.141 -0.084,-0.268 -0.042,-0.367 0.028,-0.098 0.113,-0.141 0.254,-0.141 0.141,0 0.255,0.056 0.368,0.198 1.017,1.398 1.737,2.485 2.147,3.263 0.423,0.423 0.875,0.649 1.341,0.663 0.791,0 1.187,-0.226 1.187,-0.678 0,-0.466 -0.735,-1.187 -2.218,-2.161 -1.666,-1.003 -2.966,-1.526 -3.898,-1.568 h -0.353 c -0.077,-0.01 -0.137,-0.04 -0.203,-0.062 -0.034,0.894 -0.23,1.682 -0.63,2.309 -0.438,0.677 -0.961,1.016 -1.611,1.016 -0.635,0 -1.313,-0.636 -2.006,-1.879 -0.706,-1.243 -1.059,-2.203 -1.059,-2.867 0,-0.875 0.664,-1.412 2.02,-1.624 0.508,-0.07 0.918,0 1.215,0.184 0,-1.045 -1.568,-2.5 -4.676,-4.351 -0.861,-0.466 -1.525,-0.861 -2.005,-1.172 -0.48,-0.31 -0.707,-0.494 -0.678,-0.537 0.042,-0.057 0.169,-0.085 0.409,-0.085 0.509,-0.042 2.034,0.382 4.577,1.286 1.455,0.466 2.697,1.935 3.743,4.406 0.135,0.309 0.247,0.611 0.344,0.908 0.295,0.043 0.696,0.126 1.21,0.251 0.522,0.127 1.398,0.494 2.598,1.101 1.201,0.608 2.133,0.99 2.797,1.145 2.077,0.466 3.305,0.876 3.686,1.215 1.215,0.974 1.978,2.004 2.274,3.079 0.042,0.183 0.071,0.395 0.099,0.635 0,0.89 -0.564,1.342 -1.694,1.342 -0.322,0 -0.719,-0.17 -1.169,-0.468 0.013,0.031 0.026,0.053 0.039,0.086 0.127,0.749 0.621,1.384 1.469,1.921 0.437,0.254 0.918,0.481 1.482,0.693 0.551,0.197 1.173,0.296 1.879,0.296 0.198,0 0.522,-0.084 0.961,-0.268 C 2.163,2.94 2.46,2.855 2.615,2.855 3.124,2.855 3.59,3.109 4,3.618 4.423,4.127 4.635,4.606 4.635,5.03 4.635,5.454 4.268,6.02 3.548,6.726 3.14,7.095 2.927,7.404 2.887,7.669 2.927,7.94 3.056,8.178 3.293,8.35 c 1.186,0.621 2.316,1.129 3.362,1.525 1.045,0.396 1.822,0.734 2.33,1.045 1.074,0.636 1.611,1.3 1.611,1.977 0,0.284 -0.198,0.509 -0.565,0.693" /></g><g
           transform="translate(279.3467,152.5625)"
           id="g176"><path
             id="path178"
             style="fill:#48a4ac;fill-opacity:1;fill-rule:nonzero;stroke:none"
             d="M 0,0 C -0.438,-0.706 -1.229,-2.415 -2.373,-5.155 -2.571,-5.621 -2.67,-7.203 -2.684,-9.9 c 0,-2.712 -0.043,-4.945 -0.085,-6.739 -0.056,-1.779 -0.24,-3.234 -0.537,-4.364 -0.677,-2.118 -1.892,-3.785 -3.643,-5.028 -1.752,-1.242 -3.73,-1.85 -5.933,-1.85 -3.234,0 -4.858,1.399 -4.858,4.194 0,1.442 0.846,3.546 2.555,6.3 0.411,0.693 0.608,1.158 0.608,1.412 0,0.085 -0.014,0.142 -0.028,0.156 -0.084,0.085 -0.48,-0.311 -1.186,-1.214 -2.473,-3.291 -3.715,-6.654 -3.715,-10.1 0,-3.446 1.906,-5.225 5.706,-5.31 3.8,-0.099 7.034,2.104 9.732,6.61 1.921,3.178 2.952,6.342 3.107,9.478 0.17,4.307 0.354,8.319 0.537,12.034 0.028,0.536 0.112,1.172 0.268,1.921 0.17,0.748 0.283,1.355 0.34,1.807 C 0.254,-0.127 0.184,0.071 0,0" /></g><g
           transform="translate(285.1543,124.8516)"
           id="g180"><path
             id="path182"
             style="fill:#48a4ac;fill-opacity:1;fill-rule:nonzero;stroke:none"
             d="m 0,0 c -0.297,-0.409 -0.65,-1.031 -1.073,-1.851 -0.41,-0.819 -0.636,-1.298 -0.651,-1.425 0,-0.128 0.255,-0.368 0.749,-0.749 0.508,-0.368 0.89,-0.664 1.144,-0.876 0.353,0 0.749,0.41 1.173,1.243 0.352,0.706 0.494,1.257 0.424,1.667 C 1.694,-1.695 1.539,-1.398 1.285,-1.115 1.031,-0.819 0.607,-0.452 0,0" /></g><g
           transform="translate(294.9707,128.2852)"
           id="g184"><path
             id="path186"
             style="fill:#48a4ac;fill-opacity:1;fill-rule:nonzero;stroke:none"
             d="m 0,0 c -0.311,-0.396 -0.65,-1.018 -1.06,-1.837 -0.268,-0.537 -0.444,-0.913 -0.546,-1.154 0.011,0.137 0.044,0.291 0.024,0.406 -0.028,0.311 -0.184,0.621 -0.438,0.903 -0.254,0.297 -0.692,0.664 -1.314,1.117 -0.296,-0.438 -0.663,-1.06 -1.073,-1.879 -0.424,-0.819 -0.636,-1.285 -0.664,-1.398 0,-0.141 0.255,-0.41 0.762,-0.777 0.496,-0.381 0.876,-0.664 1.131,-0.89 0.367,0 0.777,0.424 1.214,1.257 0.149,0.322 0.244,0.603 0.31,0.861 0.098,-0.141 0.333,-0.35 0.708,-0.621 0.494,-0.381 0.861,-0.664 1.101,-0.876 0.367,0 0.763,0.41 1.215,1.243 0.339,0.707 0.48,1.257 0.424,1.667 C 1.723,-1.682 1.567,-1.385 1.313,-1.103 1.045,-0.806 0.607,-0.438 0,0" /></g><g
           transform="translate(299.8994,149.584)"
           id="g188"><path
             id="path190"
             style="fill:#48a4ac;fill-opacity:1;fill-rule:nonzero;stroke:none"
             d="m 0,0 c -0.34,-0.734 -0.509,-1.567 -0.509,-2.5 v -4.039 c 0.029,-1.272 -0.113,-2.161 -0.395,-2.67 -0.297,-0.508 -0.778,-0.748 -1.455,-0.748 -0.651,0 -1.12,0.207 -1.446,0.595 -0.014,0.078 -0.02,0.16 -0.037,0.238 -0.141,0.057 -0.353,0.367 -0.636,0.904 -0.283,0.551 -0.438,0.82 -0.48,0.82 -0.409,0 -0.749,-0.467 -1.031,-1.427 -0.269,-0.946 -0.409,-1.737 -0.409,-2.36 0,-0.635 0.127,-1.073 0.38,-1.327 0,-0.282 -0.197,-0.537 -0.607,-0.777 -0.409,-0.24 -0.763,-0.353 -1.06,-0.353 -0.042,0 -0.183,0.042 -0.422,0.141 -0.003,0.002 -0.005,0.002 -0.008,0.003 -0.004,0.041 -0.003,0.084 -0.007,0.125 -0.104,0.009 -0.202,-0.013 -0.304,-0.017 -0.097,0.029 -0.18,0.045 -0.247,0.045 v -0.058 c -0.707,-0.107 -1.367,-0.536 -1.963,-1.312 -0.762,-0.989 -1.638,-1.483 -2.613,-1.483 -1.963,0 -2.952,1.299 -2.952,3.912 l -0.122,-0.23 c 0.012,1.144 0.177,2.989 0.504,5.583 0.352,2.684 0.607,4.52 0.804,5.509 0.085,0.381 0.099,0.593 0.029,0.65 -0.057,0.056 -0.114,0.042 -0.156,-0.015 -0.974,-2.09 -1.582,-3.545 -1.794,-4.35 -0.833,-5.297 -1.256,-8.983 -1.285,-11.059 0.053,0 0.107,0.02 0.16,0.039 0.046,-1.113 0.302,-2.106 0.815,-2.963 0.551,-0.946 1.384,-1.427 2.485,-1.427 0.99,0 1.907,0.678 2.755,2.02 1.003,1.498 1.822,2.344 2.443,2.556 0.34,0.087 0.63,0.114 0.89,0.103 v -0.074 l 0.452,-0.127 c 0.494,-0.071 0.975,0.17 1.441,0.706 0.932,0.974 1.568,1.525 1.892,1.624 l 1.018,-0.082 v -0.073 h 0.225 c 1.624,0 3.023,1.525 4.196,4.577 0.593,1.581 0.889,3.558 0.889,5.96 v 3.107 c 0,0.297 0.169,1.399 0.481,3.291 C 1.991,3.334 1.963,3.489 1.836,3.489 1.638,3.531 1.031,2.373 0,0" /></g><g
           transform="translate(309.0654,146.7031)"
           id="g192"><path
             id="path194"
             style="fill:#48a4ac;fill-opacity:1;fill-rule:nonzero;stroke:none"
             d="M 0,0 C -0.112,-0.085 -0.409,-0.819 -0.875,-2.203 -1.342,-3.588 -1.709,-4.76 -1.963,-5.721 l -0.028,-2.825 c -0.029,-2.061 -0.382,-4.717 -1.088,-7.937 -0.028,-0.169 0.028,-0.283 0.155,-0.326 0.41,0.029 1.116,1.47 2.148,4.323 0.409,1.116 0.635,2.486 0.706,4.138 l 0.155,4.026 C 0.113,-2.74 0.156,-1.385 0.212,-0.254 0.198,0 0.128,0.085 0,0" /></g><g
           transform="translate(319.8262,154.0352)"
           id="g196"><path
             id="path198"
             style="fill:#48a4ac;fill-opacity:1;fill-rule:nonzero;stroke:none"
             d="m 0,0 c -0.622,0 -1.258,-0.707 -1.936,-2.105 -0.677,-1.398 -1.044,-2.331 -1.101,-2.783 -0.07,-0.466 0.07,-0.861 0.395,-1.186 0.326,-0.324 0.791,-0.481 1.399,-0.466 l 1.172,0.099 c -0.014,-0.763 -1.017,-1.95 -3.008,-3.56 -1.173,-0.833 -2.021,-1.44 -2.557,-1.836 -0.537,-0.395 -0.805,-0.649 -0.805,-0.748 0.043,-0.071 0.113,-0.1 0.198,-0.1 1.807,0.297 3.531,0.891 5.155,1.794 0.763,0.537 1.441,1.582 2.034,3.136 0.579,1.554 0.932,2.727 1.06,3.517 0.112,0.791 0.169,1.441 0.169,1.921 0,0.495 -0.212,1.003 -0.621,1.526 C 1.144,-0.269 0.621,0 0,0" /></g><g
           transform="translate(323.542,136.1094)"
           id="g200"><path
             id="path202"
             style="fill:#48a4ac;fill-opacity:1;fill-rule:nonzero;stroke:none"
             d="m 0,0 c 0.636,-0.466 1.116,-0.847 1.427,-1.115 0.48,0 0.974,0.536 1.511,1.595 C 3.39,1.356 3.56,2.048 3.446,2.571 3.39,2.952 3.192,3.319 2.867,3.687 2.557,4.04 2.006,4.521 1.243,5.1 0.861,4.562 0.396,3.771 -0.127,2.74 -0.649,1.709 -0.918,1.116 -0.932,0.989 -0.932,0.806 -0.621,0.467 0,0" /></g><g
           transform="translate(334.0361,145.2773)"
           id="g204"><path
             id="path206"
             style="fill:#48a4ac;fill-opacity:1;fill-rule:nonzero;stroke:none"
             d="m 0,0 c -0.155,-0.057 -0.635,-0.904 -1.469,-2.557 -0.494,-1.214 -0.748,-2.274 -0.776,-3.164 l -0.1,-3.234 c -0.013,-1.37 -0.367,-2.557 -1.045,-3.587 -2.161,-3.334 -5.098,-5.001 -8.813,-5.001 -3.56,0.043 -5.297,1.61 -5.184,4.718 0.042,1.398 0.89,3.8 2.557,7.204 0.113,0.184 0.197,0.424 0.24,0.72 0.057,0.282 0.014,0.452 -0.127,0.494 -0.141,0.043 -0.353,-0.197 -0.65,-0.706 -2.542,-4.35 -3.814,-7.994 -3.814,-10.918 0,-2.175 0.551,-3.757 1.639,-4.718 1.088,-0.975 2.43,-1.482 4.025,-1.511 1.611,-0.028 3.15,0.311 4.647,1.045 3.376,1.851 5.791,5 7.274,9.435 0.17,0.537 0.409,1.568 0.749,3.093 0.325,1.526 0.523,3.009 0.593,4.436 0.085,1.299 0.227,2.57 0.452,3.814 C 0.212,-0.099 0.156,0.042 0,0" /></g><g
           transform="translate(348.0469,128.3135)"
           id="g208"><path
             id="path210"
             style="fill:#48a4ac;fill-opacity:1;fill-rule:nonzero;stroke:none"
             d="m 0,0 c -0.311,-0.396 -0.649,-1.017 -1.06,-1.836 -0.268,-0.537 -0.443,-0.913 -0.545,-1.155 0.011,0.138 0.043,0.292 0.023,0.407 -0.028,0.311 -0.184,0.621 -0.438,0.903 -0.253,0.297 -0.692,0.664 -1.313,1.117 -0.297,-0.438 -0.664,-1.06 -1.073,-1.879 -0.424,-0.82 -0.636,-1.286 -0.664,-1.399 0,-0.14 0.254,-0.409 0.762,-0.776 0.495,-0.382 0.876,-0.664 1.13,-0.89 0.367,0 0.778,0.424 1.215,1.257 0.149,0.322 0.243,0.603 0.309,0.861 0.098,-0.142 0.333,-0.35 0.708,-0.621 0.494,-0.382 0.861,-0.664 1.101,-0.876 0.367,0 0.763,0.41 1.215,1.243 0.339,0.706 0.481,1.257 0.424,1.667 -0.07,0.296 -0.226,0.593 -0.481,0.875 C 1.046,-0.805 0.607,-0.437 0,0" /></g><g
           transform="translate(356.4512,148.6758)"
           id="g212"><path
             id="path214"
             style="fill:#48a4ac;fill-opacity:1;fill-rule:nonzero;stroke:none"
             d="m 0,0 c -0.254,-0.437 -0.494,-0.706 -0.721,-0.819 -0.24,-0.127 -0.466,-0.198 -0.677,-0.212 -0.17,-0.296 -0.368,-0.551 -0.593,-0.735 -0.227,-0.197 -0.452,-0.296 -0.664,-0.324 -0.227,-0.014 -0.41,0 -0.566,0.07 -0.861,-0.861 -1.468,-1.341 -1.864,-1.455 -0.381,-0.127 -0.776,-0.127 -1.172,-0.028 -0.41,0.113 -0.749,0.128 -1.031,0.071 v -0.036 c -0.294,-0.049 -0.615,-0.203 -0.975,-0.501 -0.424,-0.353 -0.791,-0.692 -1.13,-1.045 -0.325,-0.353 -0.677,-0.706 -1.073,-1.059 -0.382,-0.354 -0.721,-0.565 -1.017,-0.65 L -12.024,-6.9 c -0.019,0.944 -0.227,1.767 -0.646,2.422 -0.437,0.679 -0.96,1.018 -1.609,1.018 -0.636,0 -1.315,-0.636 -2.006,-1.879 -0.706,-1.243 -1.06,-2.203 -1.06,-2.867 0,-0.876 0.664,-1.412 2.02,-1.624 0.509,-0.071 0.918,0 1.215,0.184 0,-1.045 -1.568,-2.5 -4.675,-4.351 -0.862,-0.466 -1.526,-0.861 -2.006,-1.172 -0.48,-0.311 -0.706,-0.495 -0.678,-0.537 0.042,-0.057 0.169,-0.085 0.409,-0.085 0.509,-0.042 2.035,0.382 4.577,1.285 1.455,0.467 2.698,1.936 3.743,4.407 0.121,0.279 0.227,0.551 0.317,0.821 0.608,0.09 1.305,0.49 2.084,1.242 1.031,1.016 1.639,1.609 1.836,1.751 0.311,0.039 0.726,0.037 1.215,0.006 v -0.034 c 1.172,-0.114 1.977,0.211 2.415,0.974 0.437,0.763 0.805,1.116 1.073,1.073 0.283,-0.042 0.594,0.043 0.961,0.269 0.367,0.226 0.735,0.537 1.087,0.918 0.198,0.043 0.495,0.183 0.904,0.452 0.933,0.734 1.399,1.737 1.399,2.966 0,0.198 -0.029,0.297 -0.085,0.297 C 0.396,0.636 0.24,0.424 0,0" /></g><g
           transform="translate(358.6748,146.7031)"
           id="g216"><path
             id="path218"
             style="fill:#48a4ac;fill-opacity:1;fill-rule:nonzero;stroke:none"
             d="M 0,0 C -0.113,-0.085 -0.409,-0.819 -0.876,-2.203 -1.342,-3.588 -1.709,-4.76 -1.963,-5.721 l -0.028,-2.825 c -0.029,-2.061 -0.382,-4.717 -1.088,-7.937 -0.028,-0.169 0.028,-0.283 0.155,-0.326 0.409,0.029 1.116,1.47 2.147,4.323 0.41,1.116 0.635,2.486 0.707,4.138 l 0.155,4.026 c 0.028,1.582 0.07,2.937 0.127,4.068 C 0.197,0 0.127,0.085 0,0" /></g><g
           transform="translate(365.8945,141.166)"
           id="g220"><path
             id="path222"
             style="fill:#48a4ac;fill-opacity:1;fill-rule:nonzero;stroke:none"
             d="M 0,0 C -0.169,0.028 -0.396,-0.424 -0.678,-1.342 -1.469,-3.94 -2.033,-5.551 -2.4,-6.144 c -0.749,-1.455 -1.908,-2.754 -3.475,-3.926 -1.568,-1.159 -2.388,-1.865 -2.43,-2.105 -0.056,-0.255 0.029,-0.367 0.269,-0.339 0.763,0 2.006,0.368 3.715,1.116 0.889,0.367 1.567,0.904 2.033,1.625 0.452,0.706 0.891,1.779 1.3,3.177 0.833,3.136 1.228,5.198 1.215,6.187 C 0.24,-0.155 0.17,-0.014 0,0" /></g><g
           transform="translate(379.5977,148.0293)"
           id="g224"><path
             id="path226"
             style="fill:#48a4ac;fill-opacity:1;fill-rule:nonzero;stroke:none"
             d="m 0,0 c 0.494,-0.367 0.875,-0.664 1.13,-0.876 0.367,0 0.763,0.409 1.186,1.243 0.339,0.706 0.48,1.257 0.41,1.666 C 2.669,2.33 2.514,2.627 2.26,2.938 1.991,3.234 1.567,3.602 0.975,4.054 0.678,3.63 0.311,3.008 -0.1,2.175 -0.523,1.355 -0.735,0.89 -0.763,0.791 -0.763,0.635 -0.509,0.381 0,0" /></g><g
           transform="translate(382.5498,141.7715)"
           id="g228"><path
             id="path230"
             style="fill:#48a4ac;fill-opacity:1;fill-rule:nonzero;stroke:none"
             d="m 0,0 c -0.509,0.777 -1.116,1.158 -1.822,1.158 -1.088,0 -2.006,-1.355 -2.755,-4.067 -0.112,-0.452 -0.028,-0.82 0.255,-1.116 0.282,-0.311 0.663,-0.453 1.158,-0.453 0.169,0 0.395,0.072 0.691,0.212 0.312,0.128 0.495,0.199 0.579,0.199 0.297,0 0.608,-0.269 0.905,-0.833 -0.621,-1.3 -1.851,-1.95 -3.687,-1.95 -0.762,0.042 -1.412,0.268 -1.949,0.692 -0.536,0.41 -0.833,1.017 -0.903,1.808 v 0.806 c 0.064,0.207 0.128,0.411 0.183,0.593 0.141,0.451 0.254,0.818 0.339,1.115 0.084,0.282 0.042,0.466 -0.099,0.523 -0.283,0.071 -0.678,-0.424 -1.186,-1.469 -0.664,-1.384 -1.215,-2.43 -1.667,-3.108 -0.918,-1.497 -2.119,-2.725 -3.616,-3.686 -0.947,-0.551 -1.751,-1.031 -2.415,-1.455 -0.678,-0.409 -1.017,-0.735 -1.017,-0.975 0,-0.14 0.579,-0.084 1.737,0.198 1.144,0.269 2.034,0.523 2.656,0.735 0.804,0.297 1.51,0.804 2.09,1.54 0.421,0.512 0.804,1.109 1.169,1.745 0.251,-2.422 1.392,-3.639 3.435,-3.639 0.763,0 1.497,0.24 2.204,0.721 0.706,0.48 1.342,1.073 1.921,1.794 0.579,0.706 1.13,1.709 1.666,2.994 0.594,1.412 0.891,2.599 0.891,3.588 C 0.763,-1.539 0.508,-0.763 0,0" /></g><path
           id="path232"
           style="fill:#48a4ac;fill-opacity:1;fill-rule:nonzero;stroke:none"
           d="m 118.571,98.306 h 2.141 v 10.604 h -2.141 z" /><path
           id="path234"
           style="fill:#48a4ac;fill-opacity:1;fill-rule:nonzero;stroke:none"
           d="m 122.736,98.306 h 2.033 v 2.033 h -2.033 z" /><g
           transform="translate(130.5981,104.4248)"
           id="g236"><path
             id="path238"
             style="fill:#48a4ac;fill-opacity:1;fill-rule:nonzero;stroke:none"
             d="M 0,0 H -1.584 V 2.69 H 0.087 C 0.955,2.69 1.476,2.679 1.649,2.654 1.997,2.597 2.265,2.458 2.456,2.238 2.646,2.019 2.741,1.731 2.741,1.374 2.741,1.056 2.669,0.791 2.524,0.578 2.38,0.366 2.18,0.217 1.924,0.13 1.668,0.043 1.027,0 0,0 m 3.295,-2.329 c -0.301,0.323 -0.684,0.619 -1.147,0.89 0.931,0.134 1.63,0.461 2.098,0.98 0.467,0.518 0.701,1.175 0.701,1.971 0,0.627 -0.154,1.183 -0.463,1.671 C 4.176,3.669 3.765,4.008 3.251,4.198 2.738,4.389 1.915,4.484 0.781,4.484 H -3.725 V -6.119 h 2.141 v 4.427 h 0.434 c 0.492,0 0.851,-0.04 1.078,-0.12 0.226,-0.08 0.441,-0.226 0.643,-0.441 C 0.774,-2.468 1.15,-2.987 1.7,-3.812 l 1.548,-2.307 h 2.56 l -1.294,2.068 c -0.512,0.825 -0.918,1.399 -1.219,1.722" /></g><path
           id="path240"
           style="fill:#48a4ac;fill-opacity:1;fill-rule:nonzero;stroke:none"
           d="m 137.549,98.306 h 2.033 v 2.033 h -2.033 z" /><path
           id="path242"
           style="fill:#48a4ac;fill-opacity:1;fill-rule:nonzero;stroke:none"
           d="m 141.614,98.306 h 2.141 v 10.604 h -2.141 z" /><g
           transform="translate(149.5259,104.4248)"
           id="g244"><path
             id="path246"
             style="fill:#48a4ac;fill-opacity:1;fill-rule:nonzero;stroke:none"
             d="M 0,0 H -1.584 V 2.69 H 0.087 C 0.955,2.69 1.476,2.679 1.649,2.654 1.996,2.597 2.265,2.458 2.456,2.238 2.646,2.019 2.741,1.731 2.741,1.374 2.741,1.056 2.669,0.791 2.524,0.578 2.38,0.366 2.179,0.217 1.924,0.13 1.668,0.043 1.027,0 0,0 m 3.295,-2.329 c -0.301,0.323 -0.684,0.619 -1.147,0.89 0.931,0.134 1.63,0.461 2.098,0.98 0.467,0.518 0.701,1.175 0.701,1.971 0,0.627 -0.154,1.183 -0.463,1.671 C 4.176,3.669 3.765,4.008 3.251,4.198 2.738,4.389 1.915,4.484 0.781,4.484 H -3.725 V -6.119 h 2.141 v 4.427 h 0.434 c 0.492,0 0.851,-0.04 1.078,-0.12 0.226,-0.08 0.441,-0.226 0.643,-0.441 C 0.774,-2.468 1.15,-2.987 1.7,-3.812 l 1.548,-2.307 h 2.56 l -1.295,2.068 c -0.511,0.825 -0.917,1.399 -1.218,1.722" /></g><g
           transform="translate(159.2178,102.501)"
           id="g248"><path
             id="path250"
             style="fill:#48a4ac;fill-opacity:1;fill-rule:nonzero;stroke:none"
             d="M 0,0 1.433,3.935 2.894,0 Z m 0.326,6.408 -4.13,-10.603 h 2.271 l 0.875,2.408 H 3.581 L 4.506,-4.195 H 6.835 L 2.59,6.408 Z" /></g><g
           transform="translate(173.6323,101.8281)"
           id="g252"><path
             id="path254"
             style="fill:#48a4ac;fill-opacity:1;fill-rule:nonzero;stroke:none"
             d="M 0,0 -4.339,7.081 H -6.422 V -3.522 h 1.989 v 6.915 l 4.274,-6.915 H 1.989 V 7.081 H 0 Z" /></g><g
           transform="translate(190.0361,101.0615)"
           id="g256"><path
             id="path258"
             style="fill:#48a4ac;fill-opacity:1;fill-rule:nonzero;stroke:none"
             d="m 0,0 -2.683,7.848 h -2.322 l 3.79,-10.604 H 1.071 L 4.868,7.848 H 2.596 Z" /></g><g
           transform="translate(202.8125,100.877)"
           id="g260"><path
             id="path262"
             style="fill:#48a4ac;fill-opacity:1;fill-rule:nonzero;stroke:none"
             d="m 0,0 c -0.547,-0.614 -1.247,-0.922 -2.101,-0.922 -0.853,0 -1.557,0.31 -2.111,0.93 -0.555,0.619 -0.832,1.529 -0.832,2.729 0,1.22 0.27,2.133 0.81,2.739 0.54,0.604 1.251,0.907 2.133,0.907 0.883,0 1.59,-0.299 2.123,-0.897 C 0.555,4.889 0.821,3.981 0.821,2.767 0.821,1.537 0.547,0.615 0,0 m -2.123,8.213 c -0.863,0 -1.625,-0.14 -2.285,-0.42 C -4.904,7.586 -5.361,7.268 -5.778,6.839 -6.195,6.409 -6.524,5.925 -6.766,5.385 -7.089,4.651 -7.25,3.745 -7.25,2.666 c 0,-1.688 0.465,-3.013 1.396,-3.975 0.93,-0.962 2.184,-1.443 3.761,-1.443 1.557,0 2.801,0.483 3.731,1.45 0.931,0.967 1.396,2.306 1.396,4.018 0,1.726 -0.469,3.074 -1.406,4.043 -0.939,0.97 -2.188,1.454 -3.751,1.454" /></g><g
           transform="translate(209.7163,108.8223)"
           id="g264"><path
             id="path266"
             style="fill:#48a4ac;fill-opacity:1;fill-rule:nonzero;stroke:none"
             d="m 0,0 h -2.141 v -10.517 h 7.464 v 1.788 H 0 Z" /></g><g
           transform="translate(218.7646,108.8223)"
           id="g268"><path
             id="path270"
             style="fill:#48a4ac;fill-opacity:1;fill-rule:nonzero;stroke:none"
             d="m 0,0 h -2.141 v -10.517 h 7.464 v 1.788 H 0 Z" /></g><g
           transform="translate(227.7544,102.9785)"
           id="g272"><path
             id="path274"
             style="fill:#48a4ac;fill-opacity:1;fill-rule:nonzero;stroke:none"
             d="M 0,0 H 5.323 V 1.786 H 0 V 4.137 H 5.721 V 5.931 H -2.141 V -4.673 h 8.065 v 1.787 l -5.924,0 z" /></g><g
           transform="translate(239.3989,104.7139)"
           id="g276"><path
             id="path278"
             style="fill:#48a4ac;fill-opacity:1;fill-rule:nonzero;stroke:none"
             d="m 0,0 -2.495,4.195 h -2.509 l 3.883,-6.14 V -6.408 H 1.013 V -1.96 L 4.911,4.195 H 2.445 Z" /></g><g
           transform="translate(251.749,100.5811)"
           id="g280"><path
             id="path282"
             style="fill:#48a4ac;fill-opacity:1;fill-rule:nonzero;stroke:none"
             d="m 0,0 c -0.2,-0.225 -0.459,-0.366 -0.777,-0.424 -0.208,-0.043 -0.697,-0.064 -1.469,-0.064 h -1.982 v 2.835 h 1.729 c 0.974,0 1.607,-0.051 1.898,-0.153 C -0.309,2.094 -0.086,1.932 0.068,1.71 0.224,1.488 0.3,1.218 0.3,0.9 0.3,0.523 0.2,0.224 0,0 m -4.228,6.563 h 1.23 c 1.008,0 1.618,-0.012 1.83,-0.037 0.357,-0.043 0.626,-0.167 0.807,-0.372 0.18,-0.205 0.27,-0.47 0.27,-0.799 0,-0.342 -0.104,-0.618 -0.314,-0.828 C -0.614,4.317 -0.903,4.19 -1.269,4.147 -1.472,4.123 -1.99,4.111 -2.824,4.111 H -4.228 Z M 0.503,3.359 c 0.458,0.207 0.82,0.519 1.088,0.933 0.268,0.415 0.402,0.87 0.402,1.367 0,0.458 -0.109,0.871 -0.326,1.24 C 1.45,7.269 1.179,7.563 0.854,7.785 0.528,8.007 0.159,8.153 -0.253,8.223 -0.665,8.293 -1.291,8.328 -2.13,8.328 H -6.369 V -2.275 h 3.61 c 1.364,0.009 2.225,0.033 2.582,0.072 0.569,0.062 1.047,0.23 1.436,0.503 0.387,0.272 0.694,0.637 0.919,1.092 0.223,0.456 0.336,0.924 0.336,1.407 0,0.612 -0.174,1.144 -0.521,1.598 -0.347,0.454 -0.845,0.774 -1.49,0.962" /></g><g
           transform="translate(258.7969,102.501)"
           id="g284"><path
             id="path286"
             style="fill:#48a4ac;fill-opacity:1;fill-rule:nonzero;stroke:none"
             d="M 0,0 1.433,3.935 2.894,0 Z m 0.326,6.408 -4.13,-10.603 h 2.271 l 0.875,2.408 H 3.58 L 4.507,-4.195 H 6.835 L 2.59,6.408 Z" /></g><g
           transform="translate(268.9668,108.8223)"
           id="g288"><path
             id="path290"
             style="fill:#48a4ac;fill-opacity:1;fill-rule:nonzero;stroke:none"
             d="m 0,0 h -2.141 v -10.517 h 7.464 v 1.788 H 0 Z" /></g><g
           transform="translate(278.0146,108.8223)"
           id="g292"><path
             id="path294"
             style="fill:#48a4ac;fill-opacity:1;fill-rule:nonzero;stroke:none"
             d="m 0,0 h -2.141 v -10.517 h 7.464 v 1.788 H 0 Z" /></g><g
           transform="translate(292.8418,98.3057)"
           id="g296"><path
             id="path298"
             style="fill:#48a4ac;fill-opacity:1;fill-rule:nonzero;stroke:none"
             d="M 0,0 H 2.141 V 4.506 H 6.567 V 6.3 H 2.141 v 2.51 h 5.128 v 1.794 l -7.269,0 z" /></g><g
           transform="translate(304.0156,102.9785)"
           id="g300"><path
             id="path302"
             style="fill:#48a4ac;fill-opacity:1;fill-rule:nonzero;stroke:none"
             d="M 0,0 H 5.323 V 1.786 H 0 V 4.137 H 5.722 V 5.931 H -2.141 V -4.673 h 8.065 v 1.787 l -5.924,0 z" /></g><g
           transform="translate(318.2061,101.6582)"
           id="g304"><path
             id="path306"
             style="fill:#48a4ac;fill-opacity:1;fill-rule:nonzero;stroke:none"
             d="m 0,0 c -0.145,-0.475 -0.331,-0.816 -0.561,-1.023 -0.228,-0.207 -0.516,-0.355 -0.864,-0.442 -0.265,-0.067 -0.696,-0.1 -1.295,-0.1 h -1.597 v 7.022 h 0.962 c 0.873,0 1.458,-0.034 1.756,-0.102 C -1.198,5.269 -0.868,5.103 -0.607,4.856 -0.347,4.611 -0.145,4.269 0,3.83 0.146,3.391 0.218,2.762 0.218,1.941 0.218,1.122 0.146,0.475 0,0 M 1.07,6.072 C 0.627,6.539 0.094,6.865 -0.527,7.048 -0.99,7.183 -1.663,7.251 -2.546,7.251 H -6.459 V -3.353 h 4.029 c 0.79,0 1.422,0.076 1.895,0.225 0.632,0.202 1.133,0.484 1.504,0.846 0.492,0.477 0.871,1.102 1.135,1.873 0.218,0.632 0.327,1.385 0.327,2.257 0,0.993 -0.117,1.829 -0.348,2.506 C 1.852,5.031 1.514,5.604 1.07,6.072" /></g><g
           transform="translate(324.5928,102.9785)"
           id="g308"><path
             id="path310"
             style="fill:#48a4ac;fill-opacity:1;fill-rule:nonzero;stroke:none"
             d="M 0,0 H 5.323 V 1.786 H 0 V 4.137 H 5.722 V 5.931 H -2.141 V -4.673 h 8.065 v 1.787 l -5.924,0 z" /></g><g
           transform="translate(336.0635,104.4248)"
           id="g312"><path
             id="path314"
             style="fill:#48a4ac;fill-opacity:1;fill-rule:nonzero;stroke:none"
             d="M 0,0 H -1.584 V 2.69 H 0.087 C 0.955,2.69 1.477,2.679 1.649,2.654 1.996,2.597 2.266,2.458 2.456,2.238 2.646,2.019 2.741,1.731 2.741,1.374 2.741,1.056 2.669,0.791 2.524,0.578 2.38,0.366 2.18,0.217 1.924,0.13 1.669,0.043 1.027,0 0,0 m 3.295,-2.329 c -0.302,0.323 -0.684,0.619 -1.147,0.89 0.931,0.134 1.63,0.461 2.098,0.98 0.468,0.518 0.701,1.175 0.701,1.971 0,0.627 -0.154,1.183 -0.463,1.671 C 4.176,3.669 3.765,4.008 3.252,4.198 2.738,4.389 1.915,4.484 0.781,4.484 H -3.725 V -6.119 h 2.141 v 4.427 h 0.435 c 0.491,0 0.85,-0.04 1.077,-0.12 0.226,-0.08 0.441,-0.226 0.643,-0.441 C 0.774,-2.468 1.15,-2.987 1.7,-3.812 l 1.548,-2.307 h 2.561 l -1.295,2.068 c -0.511,0.825 -0.917,1.399 -1.219,1.722" /></g><g
           transform="translate(345.7559,102.501)"
           id="g316"><path
             id="path318"
             style="fill:#48a4ac;fill-opacity:1;fill-rule:nonzero;stroke:none"
             d="M 0,0 1.432,3.935 2.893,0 Z m 0.325,6.408 -4.13,-10.603 h 2.272 l 0.875,2.408 H 3.58 L 4.506,-4.195 H 6.834 L 2.589,6.408 Z" /></g><g
           transform="translate(351.8672,107.1152)"
           id="g320"><path
             id="path322"
             style="fill:#48a4ac;fill-opacity:1;fill-rule:nonzero;stroke:none"
             d="M 0,0 H 3.146 V -8.81 H 5.287 V 0 H 8.426 V 1.794 H 0 Z" /></g><path
           id="path324"
           style="fill:#48a4ac;fill-opacity:1;fill-rule:nonzero;stroke:none"
           d="m 361.609,98.306 h 2.141 v 10.604 h -2.141 z" /><g
           transform="translate(372.6064,100.877)"
           id="g326"><path
             id="path328"
             style="fill:#48a4ac;fill-opacity:1;fill-rule:nonzero;stroke:none"
             d="m 0,0 c -0.547,-0.614 -1.247,-0.922 -2.101,-0.922 -0.853,0 -1.557,0.31 -2.112,0.93 -0.555,0.619 -0.831,1.529 -0.831,2.729 0,1.22 0.27,2.133 0.81,2.739 0.54,0.604 1.251,0.907 2.133,0.907 0.882,0 1.59,-0.299 2.123,-0.897 C 0.555,4.889 0.821,3.981 0.821,2.767 0.821,1.537 0.548,0.615 0,0 m -2.122,8.213 c -0.863,0 -1.625,-0.14 -2.286,-0.42 C -4.904,7.586 -5.361,7.268 -5.778,6.839 -6.195,6.409 -6.524,5.925 -6.766,5.385 -7.089,4.651 -7.25,3.745 -7.25,2.666 c 0,-1.688 0.465,-3.013 1.396,-3.975 0.93,-0.962 2.184,-1.443 3.76,-1.443 1.558,0 2.802,0.483 3.733,1.45 0.93,0.967 1.395,2.306 1.395,4.018 0,1.726 -0.469,3.074 -1.406,4.043 -0.939,0.97 -2.188,1.454 -3.75,1.454" /></g><g
           transform="translate(383.7559,108.9092)"
           id="g330"><path
             id="path332"
             style="fill:#48a4ac;fill-opacity:1;fill-rule:nonzero;stroke:none"
             d="M 0,0 V -7.081 L -4.34,0 h -2.083 v -10.604 h 1.989 v 6.916 l 4.275,-6.916 H 1.989 L 1.989,0 Z" /></g></g></g></g></svg>